# xmcd
#
# Track frame offsets: 
#        183
#        12705
#        27030
#        43380
#        59200
#        72998
#        88725
#        106465
#        120410
#        135018
#        147483
#        164725
#        176805
#        190478
#        203743
#        223663
#        237625
#        253913
#        267248
#        279163
#        291373
#        304533
#        320350
#        331333
#        345395
#
# Disc length: 4779 seconds
#
# Revision: 7
# Processed by: cddbd v1.5.2PL0 Copyright (c) Steve Scherf et al.
# Submitted via: ExactAudioCopyFreeDBPlugin 1.0
#
DISCID=8f12a919
DTITLE=Various Artist - The Stiff Records Box Set [CD 3)
DYEAR=1992
DGENRE=Rock/Pop
TTITLE0=Madness - My Girl
TTITLE1=Desmond Dekker - Israelites
TTITLE2=Joe "King" Carrasco and The Crowns - Buena
TTITLE3=Graham Parker - Stupefaction
TTITLE4=Jona Lewie - You'll Always Find Me in the Kitchen at Parties
TTITLE5=Any Trouble - Trouble with Love
TTITLE6=Dave Stewart with Colin Blunstone - What Becomes of the Broken
TTITLE6=Hearted
TTITLE7=Graham Parker - Mercury Poisoning (Live)
TTITLE8=Dirty Looks - Let Go
TTITLE9=Madness - Baggy Trousers
TTITLE10=Dave Stewart with Barbara Gaskin - It's My Party
TTITLE11=John Otway - Green Green Grass of Home
TTITLE12=Tenpole Tudor - Three Bells in a Row
TTITLE13=Jona Lewie - Stop the Cavalry
TTITLE14=Department S - Going Left Right
TTITLE15=Department S - Is Vic There? (French Version)
TTITLE16=The Equators - If You Need Me
TTITLE17=Tenpole Tudor - Wunderbar
TTITLE18=Desmond Dekker - Allamana
TTITLE19=Alvin Stardust - Pretend
TTITLE20=Billy Bremner - Loud Music in Cars
TTITLE21=Tenpole Tudor - Throwing My Baby Out with the Bathwater
TTITLE22=Pookiesnackenburger - Just One Cornetto
TTITLE23=Via Vagabond - Who Likes Jazz?
TTITLE24=Tracey Ullman - You Broke My Heart in 17 Places
EXTD=YEAR: 1992
EXTT0=Madness
EXTT1=Desmond Dekker
EXTT2=Joe 'King' Carrasco and The Crowns
EXTT3=Graham Parker
EXTT4=Jona Lewie
EXTT5=Any Trouble
EXTT6=Dave Stewart, guest vocals Colin Blunstone
EXTT7=Graham Parker
EXTT8=Dirty Looks
EXTT9=Madness
EXTT10=Dave Stewart with Barbara Gaskin
EXTT11=John Otway
EXTT12=Tenpole Tudor
EXTT13=Jone Lewie
EXTT14=Department S
EXTT15=Department S
EXTT16=The Equators
EXTT17=Tenpole Tudor
EXTT18=desmond Dekker
EXTT19=Alvin Stardust
EXTT20=Billy Bremner
EXTT21=Tenpole Tudor
EXTT22=Pookiesnackenburger
EXTT23=Via Vagabond
EXTT24=Tracey Ullman
PLAYORDER=
